HIERARCHY
ROOT Hips
{
	OFFSET 15.585500 22.159004 44.358299
	CHANNELS 6 Xposition Yposition Zposition Zrotation Xrotation Yrotation
	JOINT Chest
	{
		OFFSET -0.128500 0.160400 6.566002
		CHANNELS 6 Xposition Yposition Zposition Zrotation Xrotation Yrotation
		JOINT Chest2
		{
			OFFSET 0.000000 0.000000 3.554802
			CHANNELS 6 Xposition Yposition Zposition Zrotation Xrotation Yrotation
			JOINT Neck
			{
				OFFSET 0.000000 0.000000 8.267998
				CHANNELS 6 Xposition Yposition Zposition Zrotation Xrotation Yrotation
				JOINT Head
				{
					OFFSET 0.000000 0.000002 2.173897
					CHANNELS 6 Xposition Yposition Zposition Zrotation Xrotation Yrotation
					End Site
					{
						OFFSET 0.000000 0.000000 7.718697
					}
				}
			}
			JOINT LeftCollar
			{
				OFFSET 2.057500 0.117599 5.946301
				CHANNELS 6 Xposition Yposition Zposition Zrotation Xrotation Yrotation
				JOINT LeftShoulder
				{
					OFFSET 4.957699 0.000000 0.000000
					CHANNELS 6 Xposition Yposition Zposition Zrotation Xrotation Yrotation
					JOINT LeftElbow
					{
						OFFSET 0.000000 0.000000 -8.465500
						CHANNELS 6 Xposition Yposition Zposition Zrotation Xrotation Yrotation
						JOINT LeftWrist
						{
							OFFSET 0.000000 -0.000002 -14.594898
							CHANNELS 6 Xposition Yposition Zposition Zrotation Xrotation Yrotation
							End Site
							{
								OFFSET 0.000000 0.000000 -2.173901
							}
						}
					}
				}
			}
			JOINT RightCollar
			{
				OFFSET -3.048500 -0.728800 6.604099
				CHANNELS 6 Xposition Yposition Zposition Zrotation Xrotation Yrotation
				JOINT RightShoulder
				{
					OFFSET -3.710299 0.000000 0.000000
					CHANNELS 6 Xposition Yposition Zposition Zrotation Xrotation Yrotation
					JOINT RightElbow
					{
						OFFSET 0.000000 0.000000 -10.450901
						CHANNELS 6 Xposition Yposition Zposition Zrotation Xrotation Yrotation
						JOINT RightWrist
						{
							OFFSET 0.000000 0.000000 -12.539200
							CHANNELS 6 Xposition Yposition Zposition Zrotation Xrotation Yrotation
							End Site
							{
								OFFSET 0.000000 -0.000002 -2.173901
							}
						}
					}
				}
			}
		}
	}
	JOINT LeftHip
	{
		OFFSET 2.442599 -0.601400 -2.767502
		CHANNELS 6 Xposition Yposition Zposition Zrotation Xrotation Yrotation
		JOINT LeftKnee
		{
			OFFSET 0.000000 -0.000002 -17.033703
			CHANNELS 6 Xposition Yposition Zposition Zrotation Xrotation Yrotation
			JOINT LeftAnkle
			{
				OFFSET 0.000000 -0.000002 -19.318800
				CHANNELS 6 Xposition Yposition Zposition Zrotation Xrotation Yrotation
				End Site
				{
					OFFSET 0.000000 -8.281900 0.000000
				}
			}
		}
	}
	JOINT RightHip
	{
		OFFSET -3.126200 -0.601400 -2.283501
		CHANNELS 6 Xposition Yposition Zposition Zrotation Xrotation Yrotation
		JOINT RightKnee
		{
			OFFSET 0.000000 -0.000002 -16.919401
			CHANNELS 6 Xposition Yposition Zposition Zrotation Xrotation Yrotation
			JOINT RightAnkle
			{
				OFFSET 0.000000 -0.000002 -18.035900
				CHANNELS 6 Xposition Yposition Zposition Zrotation Xrotation Yrotation
				End Site
				{
					OFFSET 0.000000 -9.230099 0.000000
				}
			}
		}
	}
}
MOTION
Frames: 4
Frame Time: 0.041667
23.515699 39.364708 9.025295 4.154335 -2.697051 -2.748826 -0.128499 0.160398 6.565996 -4.468317 5.294959 3.548720 -0.000001 -0.000006 3.554806 0.627498 -11.567552 -1.255690 -0.000003 -0.000005 8.267993 -0.195156 11.952595 2.097137 0.000000 0.000005 2.173894 -0.964655 -1.798229 0.116974 2.057503 0.117595 5.946308 -26.118524 8.857328 3.866492 4.957694 0.000001 -0.000008 9.406915 -3.592022 -164.528643 -0.000000 0.000002 -8.465498 -85.628620 -160.708873 -161.667272 -0.000007 -0.000004 -14.594900 -315.178451 -26.060261 -352.752305 -3.048505 -0.728802 6.604102 24.019417 2.259292 0.415707 -3.710297 0.000002 -0.000003 37.676652 -0.737302 162.155125 0.000004 0.000002 -10.450894 -49.334924 -17.459529 -7.923395 0.000003 0.000000 -12.539192 483.406256 187.782077 -192.509114 2.442596 -0.601403 -2.767503 134.118182 -0.007038 87.627721 0.000001 -0.000002 -17.033707 -177.617143 46.444142 168.910742 -0.000002 -0.000001 -19.318806 -139.510220 119.835095 393.235028 -3.126196 -0.601398 -2.283503 -130.665330 -30.852641 -93.488795 -0.000002 0.000001 -16.919395 312.629370 -59.308315 -218.444859 0.000001 0.000002 -18.035894 175.939908 54.298785 -184.888836
23.514297 39.375504 9.024899 4.150009 -2.804076 -2.758546 -0.128501 0.160401 6.566002 -4.463503 5.337585 3.540862 0.000001 0.000007 3.554806 0.658425 -11.557818 -1.256124 0.000001 0.000005 8.268002 -0.231145 12.087543 2.142516 0.000004 -0.000005 2.173892 -0.937922 -1.750760 0.093002 2.057504 0.117599 5.946311 -26.125805 8.893454 3.853003 4.957695 0.000001 0.000000 9.408747 -3.585448 -164.506759 -0.000005 0.000005 -8.465492 -85.850601 -160.717152 -161.779191 0.000001 -0.000001 -14.594893 -314.959748 -26.087467 -352.583326 -3.048501 -0.728802 6.604101 24.141524 2.479773 0.395361 -3.710293 0.000002 -0.000002 37.506037 -0.829818 162.276238 0.000001 0.000000 -10.450897 -49.391871 -17.494184 -7.924016 0.000005 0.000002 -12.539186 483.371832 187.748103 -192.349697 2.442590 -0.601399 -2.767501 134.080903 -0.121352 87.535896 -0.000002 -0.000007 -17.033707 -177.586148 46.480516 168.915100 -0.000002 -0.000002 -19.318800 -139.525342 119.833838 393.239563 -3.126202 -0.601401 -2.283498 -130.615005 -30.896880 -93.410999 -0.000003 -0.000002 -16.919395 312.740292 -59.351680 -218.400094 -0.000000 -0.000001 -18.035898 176.027307 54.303170 -184.930964
23.513096 39.385704 9.024399 4.098096 -2.864283 -2.836378 -0.128500 0.160397 6.566003 -4.414240 5.330642 3.592739 0.000001 0.000003 3.554806 0.689927 -11.547067 -1.254315 -0.000000 0.000004 8.268003 -0.265895 12.217299 2.190405 -0.000001 -0.000001 2.173898 -0.913694 -1.703339 0.064010 2.057505 0.117600 5.946308 -26.133625 8.928550 3.841210 4.957700 0.000005 -0.000006 9.412927 -3.582538 -164.483427 -0.000001 -0.000000 -8.465501 -86.080997 -160.725307 -161.896493 -0.000010 0.000004 -14.594904 -314.723342 -26.114542 -352.392873 -3.048501 -0.728797 6.604103 24.265340 2.707792 0.375030 -3.710300 0.000003 -0.000007 37.329269 -0.930807 162.403143 -0.000009 0.000004 -10.450890 -49.447957 -17.539941 -7.928061 0.000000 0.000000 -12.539197 483.335003 187.714731 -192.174407 2.442593 -0.601399 -2.767506 134.093948 -0.156096 87.431961 0.000001 -0.000002 -17.033705 -177.555794 46.516139 168.918774 -0.000003 0.000001 -19.318808 -139.540246 119.831981 393.245437 -3.126199 -0.601405 -2.283499 -130.560254 -30.970041 -93.422016 -0.000005 -0.000002 -16.919401 312.841679 -59.395386 -218.356886 -0.000001 0.000003 -18.035896 176.113682 54.307715 -184.972683
23.512001 39.395107 9.023697 4.090934 -2.964314 -2.846042 -0.128498 0.160396 6.566010 -4.405333 5.365838 3.579507 -0.000002 0.000000 3.554808 0.721545 -11.535582 -1.250549 0.000001 0.000002 8.267997 -0.298928 12.341691 2.240391 0.000001 0.000002 2.173896 -0.891474 -1.656560 0.029510 2.057503 0.117602 5.946307 -26.147214 8.963483 3.837664 4.957697 -0.000001 -0.000005 9.377557 -3.490239 -164.518889 0.000001 -0.000001 -8.465500 -86.367845 -160.780877 -162.129799 -0.000002 0.000002 -14.594898 -314.476225 -26.141726 -352.179881 -3.048504 -0.728801 6.604102 24.388529 2.939619 0.354802 -3.710296 -0.000004 -0.000003 37.155283 -1.039004 162.533873 -0.000002 0.000006 -10.450887 -49.496226 -17.595402 -7.935939 0.000005 0.000000 -12.539194 483.295334 187.683640 -191.983504 2.442596 -0.601401 -2.767497 134.061792 -0.261191 87.348906 0.000000 0.000001 -17.033709 -177.527217 46.550297 168.921384 -0.000003 -0.000002 -19.318798 -139.554603 119.829372 393.252950 -3.126194 -0.601403 -2.283494 -130.508891 -31.024854 -93.349124 -0.000006 -0.000005 -16.919399 312.932330 -59.438669 -218.315987 0.000002 -0.000002 -18.035894 176.197297 54.312240 -185.012845
